<svg width="76" height="76" viewBox="0 0 76 76" xmlns="http://www.w3.org/2000/svg">
  <defs>
    <linearGradient id="bgGradient" x1="0%" y1="0%" x2="100%" y2="100%">
      <stop offset="0%" style="stop-color:#667eea;stop-opacity:1" />
      <stop offset="50%" style="stop-color:#764ba2;stop-opacity:1" />
      <stop offset="100%" style="stop-color:#f093fb;stop-opacity:1" />
    </linearGradient>
    <linearGradient id="bookGradient" x1="0%" y1="0%" x2="100%" y2="100%">
      <stop offset="0%" style="stop-color:#ffffff;stop-opacity:1" />
      <stop offset="100%" style="stop-color:#f8fafc;stop-opacity:1" />
    </linearGradient>
    <linearGradient id="pageGradient" x1="0%" y1="0%" x2="100%" y2="100%">
      <stop offset="0%" style="stop-color:#f1f5f9;stop-opacity:1" />
      <stop offset="100%" style="stop-color:#e2e8f0;stop-opacity:1" />
    </linearGradient>
    <linearGradient id="starGradient" x1="0%" y1="0%" x2="100%" y2="100%">
      <stop offset="0%" style="stop-color:#fbbf24;stop-opacity:1" />
      <stop offset="100%" style="stop-color:#f59e0b;stop-opacity:1" />
    </linearGradient>
    <linearGradient id="trophyGradient" x1="0%" y1="0%" x2="100%" y2="100%">
      <stop offset="0%" style="stop-color:#fbbf24;stop-opacity:1" />
      <stop offset="100%" style="stop-color:#d97706;stop-opacity:1" />
    </linearGradient>
    <filter id="bookShadow" x="-50%" y="-50%" width="200%" height="200%">
      <feGaussianBlur in="SourceGraphic" stdDeviation="1.5"/>
      <feOffset dx="0" dy="1" result="offset"/>
      <feFlood flood-color="#000000" flood-opacity="0.15"/>
      <feComposite in2="offset" operator="in"/>
      <feMerge>
        <feMergeNode/>
        <feMergeNode in="SourceGraphic"/>
      </feMerge>
    </filter>
    <filter id="elementShadow" x="-50%" y="-50%" width="200%" height="200%">
      <feGaussianBlur in="SourceGraphic" stdDeviation="0.8"/>
      <feOffset dx="0" dy="1" result="offset"/>
      <feFlood flood-color="#000000" flood-opacity="0.2"/>
      <feComposite in2="offset" operator="in"/>
      <feMerge>
        <feMergeNode/>
        <feMergeNode in="SourceGraphic"/>
      </feMerge>
    </filter>
    <radialGradient id="highlight" cx="30%" cy="30%" r="40%">
      <stop offset="0%" style="stop-color:#ffffff;stop-opacity:0.3" />
      <stop offset="100%" style="stop-color:#ffffff;stop-opacity:0" />
    </radialGradient>
  </defs>
  
  <rect width="76" height="76" rx="15" fill="url(#bgGradient)"/>
  <rect width="76" height="76" rx="15" fill="url(#highlight)"/>
  
  <g filter="url(#bookShadow)">
    <rect x="18" y="13" width="40" height="50" rx="3" fill="url(#bookGradient)"/>
  </g>
  
  <rect x="21" y="16" width="34" height="44" rx="2" fill="url(#pageGradient)"/>
  
  <g fill="#1e293b" opacity="0.8">
    <rect x="25" y="20" width="26" height="2" rx="1" fill="#1e40af"/>
    <rect x="25" y="24" width="22" height="1" rx="0.5" fill="#64748b"/>
    <rect x="25" y="28" width="24" height="1" rx="0.5" fill="#64748b"/>
    <rect x="25" y="32" width="20" height="1" rx="0.5" fill="#64748b"/>
    
    <rect x="25" y="36" width="26" height="2" rx="1" fill="#1e40af"/>
    <rect x="25" y="40" width="22" height="1" rx="0.5" fill="#64748b"/>
    <rect x="25" y="44" width="24" height="1" rx="0.5" fill="#64748b"/>
    <rect x="25" y="48" width="20" height="1" rx="0.5" fill="#64748b"/>
    
    <rect x="25" y="52" width="24" height="2" rx="1" fill="#1e40af"/>
    <rect x="25" y="56" width="20" height="1" rx="0.5" fill="#64748b"/>
  </g>
  
  <g transform="translate(46, 26)" filter="url(#elementShadow)">
    <path d="M4 0L5 3L8 3L6 5L7 8L4 6L1 8L2 5L0 3L3 3Z" fill="url(#starGradient)"/>
    <path d="M3 1L4 3L5 1L4 2Z" fill="#ffffff" opacity="0.6"/>
  </g>
  
  <g transform="translate(25, 53)" filter="url(#elementShadow)">
    <path d="M3 0L3 1L4 1L4 2L3 2L3 3L2 3L2 2L3 2L3 1Z" fill="url(#trophyGradient)"/>
    <path d="M2 1L3 1L4 1L3 1Z" fill="#ffffff" opacity="0.6"/>
  </g>
  
  <g opacity="0.3">
    <circle cx="13" cy="20" r="1" fill="#ffffff"/>
    <circle cx="59" cy="32" r="1" fill="#ffffff"/>
    <circle cx="17" cy="53" r="1" fill="#ffffff"/>
    <circle cx="55" cy="59" r="1" fill="#ffffff"/>
  </g>
</svg>