<svg width="180" height="180" viewBox="0 0 180 180" xmlns="http://www.w3.org/2000/svg">
  <defs>
    <linearGradient id="bgGradient" x1="0%" y1="0%" x2="100%" y2="100%">
      <stop offset="0%" style="stop-color:#667eea;stop-opacity:1" />
      <stop offset="50%" style="stop-color:#764ba2;stop-opacity:1" />
      <stop offset="100%" style="stop-color:#f093fb;stop-opacity:1" />
    </linearGradient>
    <linearGradient id="bookGradient" x1="0%" y1="0%" x2="100%" y2="100%">
      <stop offset="0%" style="stop-color:#ffffff;stop-opacity:1" />
      <stop offset="100%" style="stop-color:#f8fafc;stop-opacity:1" />
    </linearGradient>
    <linearGradient id="pageGradient" x1="0%" y1="0%" x2="100%" y2="100%">
      <stop offset="0%" style="stop-color:#f1f5f9;stop-opacity:1" />
      <stop offset="100%" style="stop-color:#e2e8f0;stop-opacity:1" />
    </linearGradient>
    <linearGradient id="starGradient" x1="0%" y1="0%" x2="100%" y2="100%">
      <stop offset="0%" style="stop-color:#fbbf24;stop-opacity:1" />
      <stop offset="100%" style="stop-color:#f59e0b;stop-opacity:1" />
    </linearGradient>
    <linearGradient id="trophyGradient" x1="0%" y1="0%" x2="100%" y2="100%">
      <stop offset="0%" style="stop-color:#fbbf24;stop-opacity:1" />
      <stop offset="100%" style="stop-color:#d97706;stop-opacity:1" />
    </linearGradient>
    <filter id="bookShadow" x="-50%" y="-50%" width="200%" height="200%">
      <feGaussianBlur in="SourceGraphic" stdDeviation="4.5"/>
      <feOffset dx="0" dy="3" result="offset"/>
      <feFlood flood-color="#000000" flood-opacity="0.15"/>
      <feComposite in2="offset" operator="in"/>
      <feMerge>
        <feMergeNode/>
        <feMergeNode in="SourceGraphic"/>
      </feMerge>
    </filter>
    <filter id="elementShadow" x="-50%" y="-50%" width="200%" height="200%">
      <feGaussianBlur in="SourceGraphic" stdDeviation="2.5"/>
      <feOffset dx="0" dy="2" result="offset"/>
      <feFlood flood-color="#000000" flood-opacity="0.2"/>
      <feComposite in2="offset" operator="in"/>
      <feMerge>
        <feMergeNode/>
        <feMergeNode in="SourceGraphic"/>
      </feMerge>
    </filter>
    <radialGradient id="highlight" cx="30%" cy="30%" r="40%">
      <stop offset="0%" style="stop-color:#ffffff;stop-opacity:0.3" />
      <stop offset="100%" style="stop-color:#ffffff;stop-opacity:0" />
    </radialGradient>
  </defs>
  
  <rect width="180" height="180" rx="36" fill="url(#bgGradient)"/>
  <rect width="180" height="180" rx="36" fill="url(#highlight)"/>
  
  <g filter="url(#bookShadow)">
    <rect x="42" y="30" width="96" height="120" rx="8" fill="url(#bookGradient)"/>
  </g>
  
  <rect x="48" y="36" width="84" height="108" rx="5" fill="url(#pageGradient)"/>
  
  <g fill="#1e293b" opacity="0.8">
    <rect x="56" y="48" width="68" height="4" rx="2" fill="#1e40af"/>
    <rect x="56" y="56" width="56" height="2" rx="1" fill="#64748b"/>
    <rect x="56" y="64" width="62" height="2" rx="1" fill="#64748b"/>
    <rect x="56" y="72" width="52" height="2" rx="1" fill="#64748b"/>
    
    <rect x="56" y="80" width="68" height="4" rx="2" fill="#1e40af"/>
    <rect x="56" y="88" width="56" height="2" rx="1" fill="#64748b"/>
    <rect x="56" y="96" width="62" height="2" rx="1" fill="#64748b"/>
    <rect x="56" y="104" width="52" height="2" rx="1" fill="#64748b"/>
    
    <rect x="56" y="112" width="62" height="4" rx="2" fill="#1e40af"/>
    <rect x="56" y="120" width="52" height="2" rx="1" fill="#64748b"/>
  </g>
  
  <g transform="translate(110, 58)" filter="url(#elementShadow)">
    <path d="M11 0L12 4L16 4L13 6L14 10L11 8L8 10L9 6L6 4L10 4Z" fill="url(#starGradient)"/>
    <path d="M10 2L11 4L12 2L11 3Z" fill="#ffffff" opacity="0.6"/>
  </g>
  
  <g transform="translate(56, 124)" filter="url(#elementShadow)">
    <path d="M9 0L9 1L10 1L10 2L9 2L9 3L8 3L8 2L9 2L9 1Z" fill="url(#trophyGradient)"/>
    <path d="M8 1L9 1L10 1L9 1Z" fill="#ffffff" opacity="0.6"/>
  </g>
  
  <g opacity="0.3">
    <circle cx="30" cy="48" r="1" fill="#ffffff"/>
    <circle cx="146" cy="68" r="1" fill="#ffffff"/>
    <circle cx="36" cy="124" r="1" fill="#ffffff"/>
    <circle cx="140" cy="132" r="1" fill="#ffffff"/>
  </g>
</svg>