<svg width="144" height="144" viewBox="0 0 144 144" xmlns="http://www.w3.org/2000/svg">
  <defs>
    <linearGradient id="bgGradient" x1="0%" y1="0%" x2="100%" y2="100%">
      <stop offset="0%" style="stop-color:#667eea;stop-opacity:1" />
      <stop offset="50%" style="stop-color:#764ba2;stop-opacity:1" />
      <stop offset="100%" style="stop-color:#f093fb;stop-opacity:1" />
    </linearGradient>
    <linearGradient id="bookGradient" x1="0%" y1="0%" x2="100%" y2="100%">
      <stop offset="0%" style="stop-color:#ffffff;stop-opacity:1" />
      <stop offset="100%" style="stop-color:#f8fafc;stop-opacity:1" />
    </linearGradient>
    <linearGradient id="pageGradient" x1="0%" y1="0%" x2="100%" y2="100%">
      <stop offset="0%" style="stop-color:#f1f5f9;stop-opacity:1" />
      <stop offset="100%" style="stop-color:#e2e8f0;stop-opacity:1" />
    </linearGradient>
    <linearGradient id="starGradient" x1="0%" y1="0%" x2="100%" y2="100%">
      <stop offset="0%" style="stop-color:#fbbf24;stop-opacity:1" />
      <stop offset="100%" style="stop-color:#f59e0b;stop-opacity:1" />
    </linearGradient>
    <linearGradient id="trophyGradient" x1="0%" y1="0%" x2="100%" y2="100%">
      <stop offset="0%" style="stop-color:#fbbf24;stop-opacity:1" />
      <stop offset="100%" style="stop-color:#d97706;stop-opacity:1" />
    </linearGradient>
    <filter id="bookShadow" x="-50%" y="-50%" width="200%" height="200%">
      <feGaussianBlur in="SourceGraphic" stdDeviation="3.5"/>
      <feOffset dx="0" dy="3" result="offset"/>
      <feFlood flood-color="#000000" flood-opacity="0.15"/>
      <feComposite in2="offset" operator="in"/>
      <feMerge>
        <feMergeNode/>
        <feMergeNode in="SourceGraphic"/>
      </feMerge>
    </filter>
    <filter id="elementShadow" x="-50%" y="-50%" width="200%" height="200%">
      <feGaussianBlur in="SourceGraphic" stdDeviation="1.8"/>
      <feOffset dx="0" dy="1" result="offset"/>
      <feFlood flood-color="#000000" flood-opacity="0.2"/>
      <feComposite in2="offset" operator="in"/>
      <feMerge>
        <feMergeNode/>
        <feMergeNode in="SourceGraphic"/>
      </feMerge>
    </filter>
    <radialGradient id="highlight" cx="30%" cy="30%" r="40%">
      <stop offset="0%" style="stop-color:#ffffff;stop-opacity:0.3" />
      <stop offset="100%" style="stop-color:#ffffff;stop-opacity:0" />
    </radialGradient>
  </defs>
  
  <rect width="144" height="144" rx="27" fill="url(#bgGradient)"/>
  <rect width="144" height="144" rx="27" fill="url(#highlight)"/>
  
  <g filter="url(#bookShadow)">
    <rect x="33" y="24" width="78" height="96" rx="7" fill="url(#bookGradient)"/>
  </g>
  
  <rect x="39" y="30" width="66" height="84" rx="4" fill="url(#pageGradient)"/>
  
  <g fill="#1e293b" opacity="0.8">
    <rect x="47" y="39" width="50" height="4" rx="2" fill="#1e40af"/>
    <rect x="47" y="45" width="42" height="2" rx="1" fill="#64748b"/>
    <rect x="47" y="51" width="46" height="2" rx="1" fill="#64748b"/>
    <rect x="47" y="57" width="40" height="2" rx="1" fill="#64748b"/>
    
    <rect x="47" y="63" width="50" height="4" rx="2" fill="#1e40af"/>
    <rect x="47" y="69" width="42" height="2" rx="1" fill="#64748b"/>
    <rect x="47" y="75" width="46" height="2" rx="1" fill="#64748b"/>
    <rect x="47" y="81" width="40" height="2" rx="1" fill="#64748b"/>
    
    <rect x="47" y="87" width="46" height="4" rx="2" fill="#1e40af"/>
    <rect x="47" y="93" width="40" height="2" rx="1" fill="#64748b"/>
  </g>
  
  <g transform="translate(88, 47)" filter="url(#elementShadow)">
    <path d="M8 0L9 4L13 4L10 6L11 10L8 8L5 10L6 6L3 4L7 4Z" fill="url(#starGradient)"/>
    <path d="M7 2L8 4L9 2L8 3Z" fill="#ffffff" opacity="0.6"/>
  </g>
  
  <g transform="translate(47, 99)" filter="url(#elementShadow)">
    <path d="M7 0L7 1L8 1L8 2L7 2L7 3L6 3L6 2L7 2L7 1Z" fill="url(#trophyGradient)"/>
    <path d="M6 1L7 1L8 1L7 1Z" fill="#ffffff" opacity="0.6"/>
  </g>
  
  <g opacity="0.3">
    <circle cx="24" cy="39" r="1" fill="#ffffff"/>
    <circle cx="116" cy="56" r="1" fill="#ffffff"/>
    <circle cx="30" cy="99" r="1" fill="#ffffff"/>
    <circle cx="110" cy="106" r="1" fill="#ffffff"/>
  </g>
</svg>