<svg width="114" height="114" viewBox="0 0 114 114" xmlns="http://www.w3.org/2000/svg">
  <defs>
    <linearGradient id="bgGradient" x1="0%" y1="0%" x2="100%" y2="100%">
      <stop offset="0%" style="stop-color:#667eea;stop-opacity:1" />
      <stop offset="50%" style="stop-color:#764ba2;stop-opacity:1" />
      <stop offset="100%" style="stop-color:#f093fb;stop-opacity:1" />
    </linearGradient>
    <linearGradient id="bookGradient" x1="0%" y1="0%" x2="100%" y2="100%">
      <stop offset="0%" style="stop-color:#ffffff;stop-opacity:1" />
      <stop offset="100%" style="stop-color:#f8fafc;stop-opacity:1" />
    </linearGradient>
    <linearGradient id="pageGradient" x1="0%" y1="0%" x2="100%" y2="100%">
      <stop offset="0%" style="stop-color:#f1f5f9;stop-opacity:1" />
      <stop offset="100%" style="stop-color:#e2e8f0;stop-opacity:1" />
    </linearGradient>
    <linearGradient id="starGradient" x1="0%" y1="0%" x2="100%" y2="100%">
      <stop offset="0%" style="stop-color:#fbbf24;stop-opacity:1" />
      <stop offset="100%" style="stop-color:#f59e0b;stop-opacity:1" />
    </linearGradient>
    <linearGradient id="trophyGradient" x1="0%" y1="0%" x2="100%" y2="100%">
      <stop offset="0%" style="stop-color:#fbbf24;stop-opacity:1" />
      <stop offset="100%" style="stop-color:#d97706;stop-opacity:1" />
    </linearGradient>
    <filter id="bookShadow" x="-50%" y="-50%" width="200%" height="200%">
      <feGaussianBlur in="SourceGraphic" stdDeviation="2.5"/>
      <feOffset dx="0" dy="2" result="offset"/>
      <feFlood flood-color="#000000" flood-opacity="0.15"/>
      <feComposite in2="offset" operator="in"/>
      <feMerge>
        <feMergeNode/>
        <feMergeNode in="SourceGraphic"/>
      </feMerge>
    </filter>
    <filter id="elementShadow" x="-50%" y="-50%" width="200%" height="200%">
      <feGaussianBlur in="SourceGraphic" stdDeviation="1.2"/>
      <feOffset dx="0" dy="1" result="offset"/>
      <feFlood flood-color="#000000" flood-opacity="0.2"/>
      <feComposite in2="offset" operator="in"/>
      <feMerge>
        <feMergeNode/>
        <feMergeNode in="SourceGraphic"/>
      </feMerge>
    </filter>
    <radialGradient id="highlight" cx="30%" cy="30%" r="40%">
      <stop offset="0%" style="stop-color:#ffffff;stop-opacity:0.3" />
      <stop offset="100%" style="stop-color:#ffffff;stop-opacity:0" />
    </radialGradient>
  </defs>
  
  <rect width="114" height="114" rx="22" fill="url(#bgGradient)"/>
  <rect width="114" height="114" rx="22" fill="url(#highlight)"/>
  
  <g filter="url(#bookShadow)">
    <rect x="26" y="19" width="62" height="76" rx="5" fill="url(#bookGradient)"/>
  </g>
  
  <rect x="31" y="24" width="52" height="66" rx="3" fill="url(#pageGradient)"/>
  
  <g fill="#1e293b" opacity="0.8">
    <rect x="38" y="31" width="38" height="3" rx="1.5" fill="#1e40af"/>
    <rect x="38" y="36" width="32" height="2" rx="1" fill="#64748b"/>
    <rect x="38" y="41" width="34" height="2" rx="1" fill="#64748b"/>
    <rect x="38" y="46" width="30" height="2" rx="1" fill="#64748b"/>
    
    <rect x="38" y="51" width="38" height="3" rx="1.5" fill="#1e40af"/>
    <rect x="38" y="56" width="32" height="2" rx="1" fill="#64748b"/>
    <rect x="38" y="61" width="34" height="2" rx="1" fill="#64748b"/>
    <rect x="38" y="66" width="30" height="2" rx="1" fill="#64748b"/>
    
    <rect x="38" y="71" width="34" height="3" rx="1.5" fill="#1e40af"/>
    <rect x="38" y="76" width="30" height="2" rx="1" fill="#64748b"/>
  </g>
  
  <g transform="translate(69, 38)" filter="url(#elementShadow)">
    <path d="M6 0L7 4L11 4L8 6L9 10L6 8L3 10L4 6L1 4L5 4Z" fill="url(#starGradient)"/>
    <path d="M5 2L6 4L7 2L6 3Z" fill="#ffffff" opacity="0.6"/>
  </g>
  
  <g transform="translate(38, 78)" filter="url(#elementShadow)">
    <path d="M5 0L5 1L6 1L6 2L5 2L5 3L4 3L4 2L5 2L5 1Z" fill="url(#trophyGradient)"/>
    <path d="M4 1L5 1L6 1L5 1Z" fill="#ffffff" opacity="0.6"/>
  </g>
  
  <g opacity="0.3">
    <circle cx="19" cy="31" r="1" fill="#ffffff"/>
    <circle cx="91" cy="45" r="1" fill="#ffffff"/>
    <circle cx="24" cy="78" r="1" fill="#ffffff"/>
    <circle cx="86" cy="85" r="1" fill="#ffffff"/>
  </g>
</svg>