<svg width="72" height="72" viewBox="0 0 72 72" xmlns="http://www.w3.org/2000/svg">
  <defs>
    <linearGradient id="bgGradient" x1="0%" y1="0%" x2="100%" y2="100%">
      <stop offset="0%" style="stop-color:#667eea;stop-opacity:1" />
      <stop offset="50%" style="stop-color:#764ba2;stop-opacity:1" />
      <stop offset="100%" style="stop-color:#f093fb;stop-opacity:1" />
    </linearGradient>
    <linearGradient id="bookGradient" x1="0%" y1="0%" x2="100%" y2="100%">
      <stop offset="0%" style="stop-color:#ffffff;stop-opacity:1" />
      <stop offset="100%" style="stop-color:#f8fafc;stop-opacity:1" />
    </linearGradient>
    <linearGradient id="pageGradient" x1="0%" y1="0%" x2="100%" y2="100%">
      <stop offset="0%" style="stop-color:#f1f5f9;stop-opacity:1" />
      <stop offset="100%" style="stop-color:#e2e8f0;stop-opacity:1" />
    </linearGradient>
    <linearGradient id="starGradient" x1="0%" y1="0%" x2="100%" y2="100%">
      <stop offset="0%" style="stop-color:#fbbf24;stop-opacity:1" />
      <stop offset="100%" style="stop-color:#f59e0b;stop-opacity:1" />
    </linearGradient>
    <linearGradient id="trophyGradient" x1="0%" y1="0%" x2="100%" y2="100%">
      <stop offset="0%" style="stop-color:#fbbf24;stop-opacity:1" />
      <stop offset="100%" style="stop-color:#d97706;stop-opacity:1" />
    </linearGradient>
    <filter id="bookShadow" x="-50%" y="-50%" width="200%" height="200%">
      <feGaussianBlur in="SourceGraphic" stdDeviation="1.5"/>
      <feOffset dx="0" dy="1" result="offset"/>
      <feFlood flood-color="#000000" flood-opacity="0.15"/>
      <feComposite in2="offset" operator="in"/>
      <feMerge>
        <feMergeNode/>
        <feMergeNode in="SourceGraphic"/>
      </feMerge>
    </filter>
    <filter id="elementShadow" x="-50%" y="-50%" width="200%" height="200%">
      <feGaussianBlur in="SourceGraphic" stdDeviation="0.8"/>
      <feOffset dx="0" dy="1" result="offset"/>
      <feFlood flood-color="#000000" flood-opacity="0.2"/>
      <feComposite in2="offset" operator="in"/>
      <feMerge>
        <feMergeNode/>
        <feMergeNode in="SourceGraphic"/>
      </feMerge>
    </filter>
    <radialGradient id="highlight" cx="30%" cy="30%" r="40%">
      <stop offset="0%" style="stop-color:#ffffff;stop-opacity:0.3" />
      <stop offset="100%" style="stop-color:#ffffff;stop-opacity:0" />
    </radialGradient>
  </defs>
  
  <rect width="72" height="72" rx="14" fill="url(#bgGradient)"/>
  <rect width="72" height="72" rx="14" fill="url(#highlight)"/>
  
  <g filter="url(#bookShadow)">
    <rect x="17" y="12" width="38" height="48" rx="3" fill="url(#bookGradient)"/>
  </g>
  
  <rect x="20" y="15" width="32" height="42" rx="2" fill="url(#pageGradient)"/>
  
  <g fill="#1e293b" opacity="0.8">
    <rect x="24" y="19" width="24" height="2" rx="1" fill="#1e40af"/>
    <rect x="24" y="23" width="20" height="1" rx="0.5" fill="#64748b"/>
    <rect x="24" y="27" width="22" height="1" rx="0.5" fill="#64748b"/>
    <rect x="24" y="31" width="18" height="1" rx="0.5" fill="#64748b"/>
    
    <rect x="24" y="35" width="24" height="2" rx="1" fill="#1e40af"/>
    <rect x="24" y="39" width="20" height="1" rx="0.5" fill="#64748b"/>
    <rect x="24" y="43" width="22" height="1" rx="0.5" fill="#64748b"/>
    <rect x="24" y="47" width="18" height="1" rx="0.5" fill="#64748b"/>
    
    <rect x="24" y="51" width="22" height="2" rx="1" fill="#1e40af"/>
    <rect x="24" y="55" width="18" height="1" rx="0.5" fill="#64748b"/>
  </g>
  
  <g transform="translate(44, 25)" filter="url(#elementShadow)">
    <path d="M4 0L5 3L8 3L6 5L7 8L4 6L1 8L2 5L0 3L3 3Z" fill="url(#starGradient)"/>
    <path d="M3 1L4 3L5 1L4 2Z" fill="#ffffff" opacity="0.6"/>
  </g>
  
  <g transform="translate(24, 50)" filter="url(#elementShadow)">
    <path d="M3 0L3 1L4 1L4 2L3 2L3 3L2 3L2 2L3 2L3 1Z" fill="url(#trophyGradient)"/>
    <path d="M2 1L3 1L4 1L3 1Z" fill="#ffffff" opacity="0.6"/>
  </g>
  
  <g opacity="0.3">
    <circle cx="12" cy="19" r="1" fill="#ffffff"/>
    <circle cx="56" cy="30" r="1" fill="#ffffff"/>
    <circle cx="16" cy="50" r="1" fill="#ffffff"/>
    <circle cx="52" cy="56" r="1" fill="#ffffff"/>
  </g>
</svg>