<svg width="152" height="152" viewBox="0 0 152 152" xmlns="http://www.w3.org/2000/svg">
  <defs>
    <linearGradient id="bgGradient" x1="0%" y1="0%" x2="100%" y2="100%">
      <stop offset="0%" style="stop-color:#667eea;stop-opacity:1" />
      <stop offset="50%" style="stop-color:#764ba2;stop-opacity:1" />
      <stop offset="100%" style="stop-color:#f093fb;stop-opacity:1" />
    </linearGradient>
    <linearGradient id="bookGradient" x1="0%" y1="0%" x2="100%" y2="100%">
      <stop offset="0%" style="stop-color:#ffffff;stop-opacity:1" />
      <stop offset="100%" style="stop-color:#f8fafc;stop-opacity:1" />
    </linearGradient>
    <linearGradient id="pageGradient" x1="0%" y1="0%" x2="100%" y2="100%">
      <stop offset="0%" style="stop-color:#f1f5f9;stop-opacity:1" />
      <stop offset="100%" style="stop-color:#e2e8f0;stop-opacity:1" />
    </linearGradient>
    <linearGradient id="starGradient" x1="0%" y1="0%" x2="100%" y2="100%">
      <stop offset="0%" style="stop-color:#fbbf24;stop-opacity:1" />
      <stop offset="100%" style="stop-color:#f59e0b;stop-opacity:1" />
    </linearGradient>
    <linearGradient id="trophyGradient" x1="0%" y1="0%" x2="100%" y2="100%">
      <stop offset="0%" style="stop-color:#fbbf24;stop-opacity:1" />
      <stop offset="100%" style="stop-color:#d97706;stop-opacity:1" />
    </linearGradient>
    <filter id="bookShadow" x="-50%" y="-50%" width="200%" height="200%">
      <feGaussianBlur in="SourceGraphic" stdDeviation="4"/>
      <feOffset dx="0" dy="3" result="offset"/>
      <feFlood flood-color="#000000" flood-opacity="0.15"/>
      <feComposite in2="offset" operator="in"/>
      <feMerge>
        <feMergeNode/>
        <feMergeNode in="SourceGraphic"/>
      </feMerge>
    </filter>
    <filter id="elementShadow" x="-50%" y="-50%" width="200%" height="200%">
      <feGaussianBlur in="SourceGraphic" stdDeviation="2"/>
      <feOffset dx="0" dy="1" result="offset"/>
      <feFlood flood-color="#000000" flood-opacity="0.2"/>
      <feComposite in2="offset" operator="in"/>
      <feMerge>
        <feMergeNode/>
        <feMergeNode in="SourceGraphic"/>
      </feMerge>
    </filter>
    <radialGradient id="highlight" cx="30%" cy="30%" r="40%">
      <stop offset="0%" style="stop-color:#ffffff;stop-opacity:0.3" />
      <stop offset="100%" style="stop-color:#ffffff;stop-opacity:0" />
    </radialGradient>
  </defs>
  
  <rect width="152" height="152" rx="30" fill="url(#bgGradient)"/>
  <rect width="152" height="152" rx="30" fill="url(#highlight)"/>
  
  <g filter="url(#bookShadow)">
    <rect x="35" y="25" width="82" height="102" rx="8" fill="url(#bookGradient)"/>
  </g>
  
  <rect x="41" y="31" width="70" height="90" rx="4" fill="url(#pageGradient)"/>
  
  <g fill="#1e293b" opacity="0.8">
    <rect x="49" y="41" width="54" height="4" rx="2" fill="#1e40af"/>
    <rect x="49" y="47" width="46" height="2" rx="1" fill="#64748b"/>
    <rect x="49" y="53" width="50" height="2" rx="1" fill="#64748b"/>
    <rect x="49" y="59" width="44" height="2" rx="1" fill="#64748b"/>
    
    <rect x="49" y="65" width="54" height="4" rx="2" fill="#1e40af"/>
    <rect x="49" y="71" width="46" height="2" rx="1" fill="#64748b"/>
    <rect x="49" y="77" width="50" height="2" rx="1" fill="#64748b"/>
    <rect x="49" y="83" width="44" height="2" rx="1" fill="#64748b"/>
    
    <rect x="49" y="89" width="50" height="4" rx="2" fill="#1e40af"/>
    <rect x="49" y="95" width="44" height="2" rx="1" fill="#64748b"/>
  </g>
  
  <g transform="translate(93, 49)" filter="url(#elementShadow)">
    <path d="M9 0L10 4L14 4L11 6L12 10L9 8L6 10L7 6L4 4L8 4Z" fill="url(#starGradient)"/>
    <path d="M8 2L9 4L10 2L9 3Z" fill="#ffffff" opacity="0.6"/>
  </g>
  
  <g transform="translate(49, 105)" filter="url(#elementShadow)">
    <path d="M8 0L8 1L9 1L9 2L8 2L8 3L7 3L7 2L8 2L8 1Z" fill="url(#trophyGradient)"/>
    <path d="M7 1L8 1L9 1L8 1Z" fill="#ffffff" opacity="0.6"/>
  </g>
  
  <g opacity="0.3">
    <circle cx="25" cy="41" r="1" fill="#ffffff"/>
    <circle cx="123" cy="58" r="1" fill="#ffffff"/>
    <circle cx="31" cy="105" r="1" fill="#ffffff"/>
    <circle cx="117" cy="112" r="1" fill="#ffffff"/>
  </g>
</svg>