<svg width="60" height="60" viewBox="0 0 60 60" xmlns="http://www.w3.org/2000/svg">
  <defs>
    <linearGradient id="bgGradient" x1="0%" y1="0%" x2="100%" y2="100%">
      <stop offset="0%" style="stop-color:#667eea;stop-opacity:1" />
      <stop offset="50%" style="stop-color:#764ba2;stop-opacity:1" />
      <stop offset="100%" style="stop-color:#f093fb;stop-opacity:1" />
    </linearGradient>
    <linearGradient id="bookGradient" x1="0%" y1="0%" x2="100%" y2="100%">
      <stop offset="0%" style="stop-color:#ffffff;stop-opacity:1" />
      <stop offset="100%" style="stop-color:#f8fafc;stop-opacity:1" />
    </linearGradient>
    <linearGradient id="pageGradient" x1="0%" y1="0%" x2="100%" y2="100%">
      <stop offset="0%" style="stop-color:#f1f5f9;stop-opacity:1" />
      <stop offset="100%" style="stop-color:#e2e8f0;stop-opacity:1" />
    </linearGradient>
    <linearGradient id="starGradient" x1="0%" y1="0%" x2="100%" y2="100%">
      <stop offset="0%" style="stop-color:#fbbf24;stop-opacity:1" />
      <stop offset="100%" style="stop-color:#f59e0b;stop-opacity:1" />
    </linearGradient>
    <linearGradient id="trophyGradient" x1="0%" y1="0%" x2="100%" y2="100%">
      <stop offset="0%" style="stop-color:#fbbf24;stop-opacity:1" />
      <stop offset="100%" style="stop-color:#d97706;stop-opacity:1" />
    </linearGradient>
    <filter id="bookShadow" x="-50%" y="-50%" width="200%" height="200%">
      <feGaussianBlur in="SourceGraphic" stdDeviation="1"/>
      <feOffset dx="0" dy="1" result="offset"/>
      <feFlood flood-color="#000000" flood-opacity="0.15"/>
      <feComposite in2="offset" operator="in"/>
      <feMerge>
        <feMergeNode/>
        <feMergeNode in="SourceGraphic"/>
      </feMerge>
    </filter>
    <filter id="elementShadow" x="-50%" y="-50%" width="200%" height="200%">
      <feGaussianBlur in="SourceGraphic" stdDeviation="0.5"/>
      <feOffset dx="0" dy="0.5" result="offset"/>
      <feFlood flood-color="#000000" flood-opacity="0.2"/>
      <feComposite in2="offset" operator="in"/>
      <feMerge>
        <feMergeNode/>
        <feMergeNode in="SourceGraphic"/>
      </feMerge>
    </filter>
    <radialGradient id="highlight" cx="30%" cy="30%" r="40%">
      <stop offset="0%" style="stop-color:#ffffff;stop-opacity:0.3" />
      <stop offset="100%" style="stop-color:#ffffff;stop-opacity:0" />
    </radialGradient>
  </defs>
  
  <rect width="60" height="60" rx="12" fill="url(#bgGradient)"/>
  <rect width="60" height="60" rx="12" fill="url(#highlight)"/>
  
  <g filter="url(#bookShadow)">
    <rect x="14" y="10" width="32" height="40" rx="2" fill="url(#bookGradient)"/>
  </g>
  
  <rect x="17" y="13" width="26" height="34" rx="1" fill="url(#pageGradient)"/>
  
  <g fill="#1e293b" opacity="0.8">
    <rect x="20" y="16" width="20" height="1" rx="0.5" fill="#1e40af"/>
    <rect x="20" y="19" width="17" height="1" rx="0.5" fill="#64748b"/>
    <rect x="20" y="22" width="18" height="1" rx="0.5" fill="#64748b"/>
    <rect x="20" y="25" width="15" height="1" rx="0.5" fill="#64748b"/>
    
    <rect x="20" y="29" width="20" height="1" rx="0.5" fill="#1e40af"/>
    <rect x="20" y="32" width="17" height="1" rx="0.5" fill="#64748b"/>
    <rect x="20" y="35" width="18" height="1" rx="0.5" fill="#64748b"/>
    <rect x="20" y="38" width="15" height="1" rx="0.5" fill="#64748b"/>
    
    <rect x="20" y="42" width="18" height="1" rx="0.5" fill="#1e40af"/>
    <rect x="20" y="45" width="15" height="1" rx="0.5" fill="#64748b"/>
  </g>
  
  <g transform="translate(37, 21)" filter="url(#elementShadow)">
    <path d="M3 0L4 2L6 2L4 3L5 5L3 4L1 5L2 3L0 2L2 2Z" fill="url(#starGradient)"/>
    <path d="M2 1L3 2L4 1L3 1.5Z" fill="#ffffff" opacity="0.6"/>
  </g>
  
  <g transform="translate(20, 42)" filter="url(#elementShadow)">
    <path d="M2 0L2 1L3 1L3 2L2 2L2 3L1 3L1 2L2 2L2 1Z" fill="url(#trophyGradient)"/>
    <path d="M1 1L2 1L3 1L2 1Z" fill="#ffffff" opacity="0.6"/>
  </g>
  
  <g opacity="0.3">
    <circle cx="10" cy="16" r="0.5" fill="#ffffff"/>
    <circle cx="47" cy="26" r="0.5" fill="#ffffff"/>
    <circle cx="13" cy="42" r="0.5" fill="#ffffff"/>
    <circle cx="44" cy="47" r="0.5" fill="#ffffff"/>
  </g>
</svg>