<svg width="96" height="96" viewBox="0 0 96 96" xmlns="http://www.w3.org/2000/svg">
  <defs>
    <linearGradient id="bgGradient" x1="0%" y1="0%" x2="100%" y2="100%">
      <stop offset="0%" style="stop-color:#667eea;stop-opacity:1" />
      <stop offset="50%" style="stop-color:#764ba2;stop-opacity:1" />
      <stop offset="100%" style="stop-color:#f093fb;stop-opacity:1" />
    </linearGradient>
    <linearGradient id="bookGradient" x1="0%" y1="0%" x2="100%" y2="100%">
      <stop offset="0%" style="stop-color:#ffffff;stop-opacity:1" />
      <stop offset="100%" style="stop-color:#f8fafc;stop-opacity:1" />
    </linearGradient>
    <linearGradient id="pageGradient" x1="0%" y1="0%" x2="100%" y2="100%">
      <stop offset="0%" style="stop-color:#f1f5f9;stop-opacity:1" />
      <stop offset="100%" style="stop-color:#e2e8f0;stop-opacity:1" />
    </linearGradient>
    <linearGradient id="starGradient" x1="0%" y1="0%" x2="100%" y2="100%">
      <stop offset="0%" style="stop-color:#fbbf24;stop-opacity:1" />
      <stop offset="100%" style="stop-color:#f59e0b;stop-opacity:1" />
    </linearGradient>
    <linearGradient id="trophyGradient" x1="0%" y1="0%" x2="100%" y2="100%">
      <stop offset="0%" style="stop-color:#fbbf24;stop-opacity:1" />
      <stop offset="100%" style="stop-color:#d97706;stop-opacity:1" />
    </linearGradient>
    <filter id="bookShadow" x="-50%" y="-50%" width="200%" height="200%">
      <feGaussianBlur in="SourceGraphic" stdDeviation="2"/>
      <feOffset dx="0" dy="2" result="offset"/>
      <feFlood flood-color="#000000" flood-opacity="0.15"/>
      <feComposite in2="offset" operator="in"/>
      <feMerge>
        <feMergeNode/>
        <feMergeNode in="SourceGraphic"/>
      </feMerge>
    </filter>
    <filter id="elementShadow" x="-50%" y="-50%" width="200%" height="200%">
      <feGaussianBlur in="SourceGraphic" stdDeviation="1"/>
      <feOffset dx="0" dy="1" result="offset"/>
      <feFlood flood-color="#000000" flood-opacity="0.2"/>
      <feComposite in2="offset" operator="in"/>
      <feMerge>
        <feMergeNode/>
        <feMergeNode in="SourceGraphic"/>
      </feMerge>
    </filter>
    <radialGradient id="highlight" cx="30%" cy="30%" r="40%">
      <stop offset="0%" style="stop-color:#ffffff;stop-opacity:0.3" />
      <stop offset="100%" style="stop-color:#ffffff;stop-opacity:0" />
    </radialGradient>
  </defs>
  
  <rect width="96" height="96" rx="18" fill="url(#bgGradient)"/>
  <rect width="96" height="96" rx="18" fill="url(#highlight)"/>
  
  <g filter="url(#bookShadow)">
    <rect x="22" y="16" width="52" height="64" rx="4" fill="url(#bookGradient)"/>
  </g>
  
  <rect x="26" y="20" width="44" height="56" rx="2" fill="url(#pageGradient)"/>
  
  <g fill="#1e293b" opacity="0.8">
    <rect x="32" y="26" width="32" height="2" rx="1" fill="#1e40af"/>
    <rect x="32" y="30" width="28" height="1" rx="0.5" fill="#64748b"/>
    <rect x="32" y="34" width="30" height="1" rx="0.5" fill="#64748b"/>
    <rect x="32" y="38" width="26" height="1" rx="0.5" fill="#64748b"/>
    
    <rect x="32" y="42" width="32" height="2" rx="1" fill="#1e40af"/>
    <rect x="32" y="46" width="28" height="1" rx="0.5" fill="#64748b"/>
    <rect x="32" y="50" width="30" height="1" rx="0.5" fill="#64748b"/>
    <rect x="32" y="54" width="26" height="1" rx="0.5" fill="#64748b"/>
    
    <rect x="32" y="58" width="30" height="2" rx="1" fill="#1e40af"/>
    <rect x="32" y="62" width="26" height="1" rx="0.5" fill="#64748b"/>
  </g>
  
  <g transform="translate(58, 32)" filter="url(#elementShadow)">
    <path d="M5 0L6 4L10 4L7 6L8 10L5 8L2 10L3 6L0 4L4 4Z" fill="url(#starGradient)"/>
    <path d="M4 2L5 4L6 2L5 3Z" fill="#ffffff" opacity="0.6"/>
  </g>
  
  <g transform="translate(32, 66)" filter="url(#elementShadow)">
    <path d="M4 0L4 1L5 1L5 2L4 2L4 3L3 3L3 2L4 2L4 1Z" fill="url(#trophyGradient)"/>
    <path d="M3 1L4 1L5 1L4 1Z" fill="#ffffff" opacity="0.6"/>
  </g>
  
  <g opacity="0.3">
    <circle cx="16" cy="26" r="1" fill="#ffffff"/>
    <circle cx="76" cy="40" r="1" fill="#ffffff"/>
    <circle cx="20" cy="66" r="1" fill="#ffffff"/>
    <circle cx="72" cy="72" r="1" fill="#ffffff"/>
  </g>
</svg>